#N canvas 295 101 849 727 10;
#X floatatom 126 479 5 0 100 1 size - -;
#X obj 568 346 textfile;
#X msg 620 232 rewind;
#X obj 622 376 bng 15 250 50 0 empty empty empty 17 7 0 10 -262144
-1 -1;
#X msg 626 268 bang;
#X obj 568 407 prepend text;
#X msg -61 484 font monof55.ttf;
#X obj -85 430 loadbang;
#X msg 592 194 read texto1.txt \, rewind;
#X obj -85 405 r init;
#X obj 322 6 r \$1-TextReader;
#X obj -85 538 f \$1;
#X obj 324 283 uzi 1 ---;
#X floatatom 375 260 5 0 0 0 - - -;
#X obj 375 189 r \$1-TextPart;
#X obj 322 39 route go;
#X obj 568 452 s \$1-ToText2d;
#X obj 59 403 r \$1-ToText2d;
#X obj 239 53 bng 15 250 50 0 empty empty empty 17 7 0 10 -262144 -1
-1;
#X obj 297 98 t b b;
#X obj 297 425 list;
#X obj 297 319 delay 2;
#N canvas 566 86 572 690 CONTACAR 0;
#X obj 129 125 inlet;
#X obj 66 405 symbol2list;
#X msg 140 357 symbol;
#X obj 62 450 list-drip;
#X obj 66 324 list2symbol;
#X msg 129 296 symbol;
#X obj 155 220 list-len;
#X floatatom 241 397 5 0 0 0 - - -;
#X obj 242 365 - 1;
#X obj 54 597 f;
#X obj 54 622 + 1;
#X floatatom 53 647 5 0 0 0 - - -;
#X obj 84 547 bng 15 250 50 0 empty empty empty 17 7 0 10 -262144 -1
-1;
#X msg 107 570 -1;
#X obj 66 505 b;
#X obj 129 176 t l l b;
#X obj 204 270 loadbang;
#X obj 214 538 +;
#X floatatom 213 595 5 0 0 0 - - -;
#X obj 232 572 s \$1-CarNum;
#X connect 0 0 15 0;
#X connect 1 0 3 0;
#X connect 2 0 1 1;
#X connect 3 0 14 0;
#X connect 4 0 1 0;
#X connect 5 0 4 1;
#X connect 6 0 8 0;
#X connect 7 0 17 1;
#X connect 8 0 7 0;
#X connect 9 0 10 0;
#X connect 10 0 9 1;
#X connect 10 0 11 0;
#X connect 10 0 17 0;
#X connect 12 0 9 0;
#X connect 13 0 9 0;
#X connect 14 0 9 0;
#X connect 15 0 4 0;
#X connect 15 1 6 0;
#X connect 15 2 13 0;
#X connect 16 0 5 0;
#X connect 16 0 2 0;
#X connect 17 0 18 0;
#X connect 17 0 19 0;
#X restore 297 452 pd CONTACAR;
#X obj -85 456 t b b b;
#N canvas 274 79 891 795 MOVIMENTA 0;
#X obj 627 -407 inlet;
#X obj 372 87 outlet;
#X obj 402 -3 sin;
#X obj 402 -282 f;
#X obj 402 -258 + 1;
#X obj 402 -158 +;
#X obj 417 -182 random 1000;
#X obj 402 21 + 1;
#X obj 402 45 / 2;
#X obj 429 -107 random 100;
#X obj 429 -81 / 100;
#X obj 402 -29 * 0.2;
#X obj 432 86 sel 0;
#X obj 432 109 bng 15 250 50 0 empty empty empty 17 7 0 10 -262144
-1 -1;
#X obj 432 248 f \$1;
#X obj 138 -78 sel 1;
#X obj 627 -384 t b b;
#X obj 627 -270 spigot;
#X obj 693 -308 tgl 15 0 empty empty empty 17 7 0 10 -262144 -1 -1
1 1;
#X obj 138 -51 s \$1-Stop;
#X obj 733 -367 r \$1-Stop;
#X msg 733 -339 0;
#X obj 693 -392 r \$1-Start;
#X msg 693 -363 1;
#X obj 228 -54 s \$1-Colide;
#X obj 417 -211 loadbang;
#X obj 417 -236 r init;
#X obj 429 -135 loadbang;
#X obj 429 -158 r init;
#X obj 138 -194 spigot;
#X obj 197 -289 r \$1-ColideSwitch;
#X obj 199 -411 r MasterColSw;
#X obj 199 -365 s \$1-ColideSwitch;
#X obj 199 -388 tgl 15 0 empty empty empty 17 7 0 10 -262144 -1 -1
0 1;
#X obj 627 -239 s \$1-tic;
#N canvas 609 90 480 575 Calcula-X 0;
#X obj 80 226 outlet;
#X obj 80 55 / 1000;
#X obj 80 -151 random 1000;
#X obj 80 80 * 7.6;
#X obj 80 105 - 3.8;
#X obj 80 189 line;
#X obj 80 28 drunk 1000 10;
#X obj 80 162 pack 0 150;
#X obj 4 -53 r \$1-tic;
#X obj 80 -187 r \$1-RandomPos;
#X obj 80 -114 t f f;
#X obj 137 -20 + 150;
#X obj 232 -70 r PONTOS;
#X obj 232 -25 + 10;
#X obj 158 83 r \$1-Stop;
#X msg 158 111 stop;
#X connect 1 0 3 0;
#X connect 2 0 10 0;
#X connect 3 0 4 0;
#X connect 4 0 7 0;
#X connect 5 0 0 0;
#X connect 6 0 1 0;
#X connect 7 0 5 0;
#X connect 8 0 6 0;
#X connect 9 0 2 0;
#X connect 10 0 6 0;
#X connect 10 1 11 0;
#X connect 11 0 7 1;
#X connect 12 0 13 0;
#X connect 13 0 6 2;
#X connect 14 0 15 0;
#X connect 15 0 5 0;
#X restore -30 -198 pd Calcula-X;
#X obj -54 -411 r \$1-tic;
#X obj 3 -294 b;
#X text 227 -390 Colision On/Off;
#X obj 3 -271 s \$1-RandomPos;
#X text -31 -223 Calcula Coordenadas X;
#N canvas 527 126 710 691 Calcula-Y 0;
#X obj 229 9 sin;
#X obj 229 -334 f;
#X obj 229 -310 + 1;
#X obj 229 226 +;
#X obj 244 197 f;
#X obj 229 145 t f b;
#X floatatom 256 75 5 0 0 0 - - -;
#X obj 229 101 * 0.2;
#X obj 229 -202 +;
#X obj 244 -233 random 1000;
#X obj 229 -73 * 0.2;
#X obj 254 -141 random 100;
#X obj 256 -118 / 100;
#X obj 256 -96 * 0.2;
#X obj 256 -8 random 100;
#X obj 256 15 / 100;
#X obj 256 43 * 0.2;
#X obj 254 -172 r \$1-RandomState;
#X obj 256 -33 r \$1-RandomState;
#X obj 376 59 * 8;
#X obj 376 82 - 4;
#X obj 376 -99 random 2000;
#X obj 376 37 / 2000;
#X obj 376 137 line;
#X obj 376 10 drunk 2000 10;
#X obj 376 108 pack 0 150;
#X obj 229 -361 r \$1-tic;
#X obj 229 256 outlet Coordenadas-Y;
#X obj 244 -280 r init;
#X obj 244 -256 loadbang;
#X text 316 -236 Random LFO Fase;
#X obj 376 -128 r \$1-RandomPos;
#X obj 376 -72 t f f;
#X obj 403 -23 + 200;
#X obj 462 -82 r PONTOS;
#X obj 462 -37 + 10;
#X obj 462 75 r \$1-Stop;
#X msg 462 103 stop;
#X connect 0 0 7 0;
#X connect 1 0 2 0;
#X connect 2 0 1 1;
#X connect 2 0 8 0;
#X connect 3 0 27 0;
#X connect 4 0 3 1;
#X connect 5 0 3 0;
#X connect 5 1 4 0;
#X connect 6 0 7 1;
#X connect 7 0 5 0;
#X connect 8 0 10 0;
#X connect 9 0 8 1;
#X connect 10 0 0 0;
#X connect 11 0 12 0;
#X connect 12 0 13 0;
#X connect 13 0 10 1;
#X connect 14 0 15 0;
#X connect 15 0 16 0;
#X connect 16 0 6 0;
#X connect 17 0 11 0;
#X connect 18 0 14 0;
#X connect 19 0 20 0;
#X connect 20 0 25 0;
#X connect 21 0 32 0;
#X connect 22 0 19 0;
#X connect 23 0 4 1;
#X connect 24 0 22 0;
#X connect 25 0 23 0;
#X connect 26 0 1 0;
#X connect 28 0 29 0;
#X connect 29 0 9 0;
#X connect 31 0 21 0;
#X connect 32 0 24 0;
#X connect 32 1 33 0;
#X connect 33 0 25 1;
#X connect 34 0 35 0;
#X connect 35 0 24 2;
#X connect 36 0 37 0;
#X connect 37 0 23 0;
#X restore -11 -76 pd Calcula-Y;
#X text -41 -99 Calcula Coordenadas Y;
#X obj -54 -379 random 10000;
#X obj -30 -160 s \$1-Pos-X;
#X obj -11 -49 s \$1-Pos-Y;
#X text 498 -185 Random LFO Fase;
#X obj 429 -56 * 0.03;
#X obj -54 -322 moses 9997;
#X msg 432 269 \; \$1-TextReader rewind \; \$1-TextPart bang \; \$1-TextReader
go \; \$1-RandomState bang \; \$1-RandomPos bang \; \$1-Size bang \;
;
#N canvas 73 79 1105 795 COLISION 0;
#X obj 30 531 tSquare2D;
#X obj 24 41 r \$1-Pos-X;
#X obj 24 225 -;
#X obj 146 43 r \$1-Tamanho-H;
#X obj 47 161 t b f;
#X obj 62 190 / 2;
#X msg 11 261 setXmin \$1;
#X obj 176 158 t b f;
#X obj 191 187 / 2;
#X msg 123 258 setXmax \$1;
#X obj 153 222 +;
#X obj 267 185 -;
#X obj 290 121 t b f;
#X obj 305 150 / 2;
#X obj 446 84 t b f;
#X obj 473 113 / 2;
#X obj 376 144 +;
#X obj 267 16 r \$1-Pos-Y-Cook;
#X obj 446 27 r \$1-Tamanho-V;
#X msg 212 265 setYmin \$1;
#X msg 293 268 setYmax \$1;
#X obj 30 552 tgl 15 0 empty empty empty 17 7 0 10 -262144 -1 -1 0
1;
#X msg 520 428 position2D \$1 \$2 0;
#X obj 520 373 pack f f;
#X obj 536 116 r X-BlobPos;
#X obj 30 603 outlet;
#X obj 146 85 * 3;
#X obj 30 574 change;
#X obj 788 555 tabread POSX;
#X obj 782 229 uzi 30;
#X obj 782 305 f;
#X obj 827 294 + 1;
#X msg 837 247 0;
#X obj 785 467 sel;
#X obj 889 294 f \$1;
#X obj 931 261 bng 15 250 50 0 empty empty empty 17 7 0 10 -262144
-1 -1;
#X obj 881 325 - 1;
#X obj 889 229 loadbang;
#X obj 782 195 t b b;
#X obj 791 507 t f f;
#X msg 772 634 position2D \$1 \$2 0;
#X obj 772 610 pack f f;
#X obj 617 718 tSquare2D;
#X obj 786 97 f;
#X obj 828 93 + 1;
#X obj 794 62 b;
#X obj 780 163 sel 0;
#X obj 755 714 bng 15 250 50 0 empty empty empty 17 7 0 10 -262144
-1 -1;
#X obj 608 749 tgl 15 0 empty empty empty 17 7 0 10 -262144 -1 -1 0
1;
#X obj 880 555 tabread POSY;
#X obj 897 199 r init;
#X obj 644 801 sel 1;
#X obj 644 778 change;
#X obj 644 826 s \$1-RandomPos;
#X obj 794 29 r \$1-tic;
#X obj 864 431 tabread Pontos;
#X floatatom 951 455 5 0 0 0 - - -;
#X floatatom 977 513 5 0 0 0 - - -;
#X obj 829 466 spigot;
#X obj 782 340 t f f;
#X obj 536 155 t f f f f f;
#X obj 648 152 t f f f f f;
#X obj 648 113 r Y-BlobPos;
#X obj 447 276 -;
#X obj 464 240 r BBSize;
#X obj 525 252 r BBSize;
#X obj 508 288 +;
#X obj 628 317 -;
#X obj 645 281 r BBSize;
#X obj 706 293 r BBSize;
#X obj 689 329 +;
#X obj 784 135 mod 2;
#X connect 0 0 21 0;
#X connect 1 0 2 0;
#X connect 1 0 10 0;
#X connect 2 0 6 0;
#X connect 3 0 26 0;
#X connect 4 0 2 0;
#X connect 4 1 5 0;
#X connect 5 0 2 1;
#X connect 6 0 0 0;
#X connect 6 0 42 0;
#X connect 7 0 10 0;
#X connect 7 1 8 0;
#X connect 8 0 10 1;
#X connect 9 0 0 0;
#X connect 9 0 42 0;
#X connect 10 0 9 0;
#X connect 11 0 19 0;
#X connect 12 0 11 0;
#X connect 12 1 13 0;
#X connect 13 0 11 1;
#X connect 14 0 16 0;
#X connect 14 1 15 0;
#X connect 15 0 16 1;
#X connect 16 0 20 0;
#X connect 17 0 11 0;
#X connect 17 0 16 0;
#X connect 18 0 12 0;
#X connect 18 0 14 0;
#X connect 19 0 0 0;
#X connect 19 0 42 0;
#X connect 20 0 0 0;
#X connect 20 0 42 0;
#X connect 21 0 27 0;
#X connect 22 0 0 0;
#X connect 23 0 22 0;
#X connect 24 0 60 0;
#X connect 26 0 7 0;
#X connect 26 0 4 0;
#X connect 27 0 25 0;
#X connect 28 0 41 0;
#X connect 29 0 30 0;
#X connect 30 0 31 0;
#X connect 30 0 59 0;
#X connect 31 0 30 1;
#X connect 32 0 30 1;
#X connect 33 1 39 0;
#X connect 34 0 36 0;
#X connect 35 0 34 0;
#X connect 36 0 33 1;
#X connect 37 0 34 0;
#X connect 38 0 29 0;
#X connect 38 1 32 0;
#X connect 39 0 28 0;
#X connect 39 1 49 0;
#X connect 40 0 42 0;
#X connect 41 0 40 0;
#X connect 42 0 48 0;
#X connect 42 0 52 0;
#X connect 43 0 44 0;
#X connect 43 0 71 0;
#X connect 44 0 43 1;
#X connect 45 0 43 0;
#X connect 46 0 38 0;
#X connect 49 0 41 1;
#X connect 50 0 37 0;
#X connect 51 0 53 0;
#X connect 52 0 51 0;
#X connect 54 0 45 0;
#X connect 55 0 58 1;
#X connect 58 0 33 0;
#X connect 59 0 58 0;
#X connect 59 1 55 0;
#X connect 60 0 23 0;
#X connect 60 1 23 0;
#X connect 60 2 66 0;
#X connect 60 3 63 0;
#X connect 60 4 23 0;
#X connect 61 0 70 0;
#X connect 61 1 67 0;
#X connect 61 2 23 1;
#X connect 61 3 23 1;
#X connect 61 4 23 1;
#X connect 62 0 61 0;
#X connect 63 0 23 0;
#X connect 64 0 63 1;
#X connect 65 0 66 1;
#X connect 66 0 23 0;
#X connect 67 0 23 1;
#X connect 68 0 67 1;
#X connect 69 0 70 1;
#X connect 70 0 23 1;
#X connect 71 0 46 0;
#X restore 138 -323 pd COLISION;
#X obj 148 157 f \$1;
#X obj 61 209 tabwrite Pontos;
#X obj 148 128 loadbang;
#X obj 148 184 - 1;
#X obj 148 103 r init;
#X msg 61 92 1;
#X obj 71 120 r \$1-Start;
#X msg 71 149 0;
#X obj -33 17 r \$1-Stop;
#X obj -25 51 t b b;
#X obj -25 245 s ChekaPontos;
#X obj 63 -386 r PONTOS;
#X obj 42 -343 expr 9997 - $f1;
#X floatatom 450 24 5 0 0 0 - - -;
#X obj 680 -161 * 0.02;
#X obj 680 -134 + 0.03;
#X obj 762 -156 r PONTOS;
#X obj 309 102 vsl 15 128 0 1 0 0 empty empty empty 0 -9 0 10 -262144
-1 -1 0 1;
#X obj 695 11 line;
#X obj 694 -17 pack f 200;
#X obj 810 128 vsl 15 128 0 1 0 0 empty empty empty 0 -9 0 10 -262144
-1 -1 0 1;
#X obj 753 -76 tgl 15 0 empty empty empty 17 7 0 10 -262144 -1 -1 0
1;
#X obj 753 -109 metro 200;
#X obj 766 -128 tgl 15 0 empty empty empty 17 7 0 10 -262144 -1 -1
0 1;
#X floatatom 804 -7 5 0 0 0 - - -;
#X obj 799 18 t f f;
#X obj 782 75 pow 0.5;
#X floatatom 757 35 5 0 0 0 - - -;
#X obj 241 -155 r MasterColShowDot;
#X obj 241 -129 sel 1;
#X obj 432 221 spigot;
#X obj 465 196 tgl 15 0 empty empty empty 17 7 0 10 -262144 -1 -1 1
1;
#X obj 505 137 r \$1-Stop;
#X msg 505 165 0;
#X obj 465 112 r \$1-Start;
#X msg 465 141 1;
#X obj 197 -264 t f f;
#X obj 197 -226 sel 1;
#X connect 0 0 16 0;
#X connect 2 0 7 0;
#X connect 3 0 4 0;
#X connect 4 0 3 1;
#X connect 4 0 5 0;
#X connect 5 0 11 0;
#X connect 6 0 5 1;
#X connect 7 0 8 0;
#X connect 8 0 1 0;
#X connect 8 0 12 0;
#X connect 8 0 68 0;
#X connect 9 0 10 0;
#X connect 10 0 47 0;
#X connect 11 0 2 0;
#X connect 12 0 13 0;
#X connect 13 0 81 0;
#X connect 14 0 49 0;
#X connect 15 0 19 0;
#X connect 16 0 17 0;
#X connect 16 1 3 0;
#X connect 17 0 34 0;
#X connect 18 0 17 1;
#X connect 20 0 21 0;
#X connect 21 0 18 0;
#X connect 22 0 23 0;
#X connect 23 0 18 0;
#X connect 25 0 6 0;
#X connect 26 0 25 0;
#X connect 27 0 9 0;
#X connect 28 0 27 0;
#X connect 29 0 24 0;
#X connect 29 0 15 0;
#X connect 30 0 87 0;
#X connect 31 0 33 0;
#X connect 33 0 32 0;
#X connect 35 0 44 0;
#X connect 36 0 43 0;
#X connect 37 0 39 0;
#X connect 41 0 45 0;
#X connect 43 0 48 0;
#X connect 47 0 11 1;
#X connect 48 1 37 0;
#X connect 50 0 29 0;
#X connect 51 0 54 0;
#X connect 53 0 51 0;
#X connect 54 0 52 1;
#X connect 55 0 53 0;
#X connect 56 0 52 0;
#X connect 57 0 58 0;
#X connect 58 0 52 0;
#X connect 59 0 60 0;
#X connect 60 0 61 0;
#X connect 60 1 56 0;
#X connect 62 0 63 0;
#X connect 63 0 48 1;
#X connect 64 0 8 1;
#X connect 65 0 66 0;
#X connect 67 0 65 0;
#X connect 69 0 77 0;
#X connect 70 0 69 0;
#X connect 72 0 70 0;
#X connect 73 0 72 0;
#X connect 74 0 73 0;
#X connect 75 0 76 0;
#X connect 76 0 70 1;
#X connect 76 1 73 1;
#X connect 77 0 71 0;
#X connect 78 0 77 1;
#X connect 79 0 80 0;
#X connect 80 1 24 0;
#X connect 81 0 14 0;
#X connect 82 0 81 1;
#X connect 83 0 84 0;
#X connect 84 0 82 0;
#X connect 85 0 86 0;
#X connect 86 0 82 0;
#X connect 87 0 88 0;
#X connect 87 1 29 1;
#X connect 88 1 24 0;
#X restore 173 92 pd MOVIMENTA;
#X obj 21 12 t a b;
#X msg 629 302 print;
#X obj 346 156 r \$1-MudaTexto;
#X obj 375 243 + 1;
#X obj 193 733 bng 15 250 50 0 empty empty empty 17 7 0 10 -262144
-1 -1;
#N canvas 701 346 561 480 TAMANHO 0;
#X obj -2 -7 r \$1-Size;
#X obj 78 60 random 18;
#X floatatom 108 283 5 0 0 0 - - -;
#X floatatom 227 250 5 0 0 0 - - -;
#X obj 243 -48 moses 20;
#X obj 288 -21 moses 40;
#X obj 55 -121 r \$1-CarNum;
#X obj 78 -67 t b f;
#X floatatom 33 -91 5 0 0 0 - - -;
#X obj 108 307 s \$1-Tamanho;
#X msg 333 4 6;
#X msg 288 3 9;
#X msg 139 -29 37;
#X obj 107 215 + 4;
#X msg 243 2 13;
#X obj 193 -91 moses 10;
#X obj 158 -126 moses 5;
#X msg 187 -22 30;
#X connect 0 0 1 0;
#X connect 1 0 13 0;
#X connect 2 0 9 0;
#X connect 4 0 14 0;
#X connect 4 1 5 0;
#X connect 5 0 11 0;
#X connect 5 1 10 0;
#X connect 6 0 7 0;
#X connect 6 0 8 0;
#X connect 7 0 1 0;
#X connect 7 1 16 0;
#X connect 10 0 1 1;
#X connect 11 0 1 1;
#X connect 12 0 1 1;
#X connect 13 0 2 0;
#X connect 14 0 1 1;
#X connect 15 0 17 0;
#X connect 15 1 4 0;
#X connect 16 0 12 0;
#X connect 16 1 15 0;
#X connect 17 0 1 1;
#X restore -56 149 pd TAMANHO;
#N canvas 403 193 696 681 DEBUG 0;
#X obj -98 92 gemhead;
#X obj -103 633 rectangle 0.1 0.1;
#X obj -103 301 translateXYZ 0 0 0;
#X floatatom 298 176 5 0 0 0 - - -;
#X floatatom 317 96 5 0 0 0 - - -;
#X obj 317 135 t b f;
#X floatatom -4 600 5 0 0 0 - - -;
#X obj -114 44 tgl 15 0 empty empty empty 17 7 0 10 -262144 -1 -1 0
1;
#X floatatom -54 601 5 0 0 0 - - -;
#X obj 272 218 -;
#X obj 317 70 * 0.00666;
#X obj 443 242 *;
#X obj 468 135 t b f;
#X floatatom 468 110 5 0 0 0 - - -;
#X obj 456 202 t b f;
#X obj -103 336 colourRGB 1 0 0 1;
#X obj 49 521 t b f;
#X floatatom 49 496 5 0 0 0 - - -;
#X obj 37 562 * 0.021;
#X obj -117 5 r \$1-Debug;
#X obj -68 181 r \$1-Pos-X;
#X obj 272 13 r \$1-Pos-Y;
#X obj 456 80 r \$1-Tamanho;
#X obj 37 454 r \$1-Tamanho;
#X obj 443 51 r \$1-CarNum;
#X obj 317 45 r \$1-Tamanho;
#X obj 272 259 s \$1-Pos-Y-Cook;
#X obj -32 247 r \$1-Pos-Y-Cook;
#X obj 443 275 s \$1-Tamanho-H;
#X obj -57 413 r \$1-Tamanho-H;
#X obj 287 386 t b f;
#X floatatom 287 361 5 0 0 0 - - -;
#X obj 275 427 * 0.021;
#X obj 275 319 r \$1-Tamanho;
#X obj 275 458 s \$1-Tamanho-V;
#X obj 456 169 * 0.0165;
#X connect 0 0 2 0;
#X connect 2 0 15 0;
#X connect 3 0 9 0;
#X connect 4 0 5 0;
#X connect 5 0 3 0;
#X connect 5 1 9 1;
#X connect 6 0 1 2;
#X connect 7 0 0 0;
#X connect 8 0 1 1;
#X connect 9 0 26 0;
#X connect 10 0 4 0;
#X connect 11 0 28 0;
#X connect 12 0 35 0;
#X connect 12 1 35 1;
#X connect 13 0 12 0;
#X connect 14 0 11 0;
#X connect 14 1 11 1;
#X connect 15 0 1 0;
#X connect 16 0 18 0;
#X connect 16 1 18 1;
#X connect 17 0 16 0;
#X connect 18 0 6 0;
#X connect 19 0 7 0;
#X connect 20 0 2 1;
#X connect 21 0 9 0;
#X connect 22 0 35 0;
#X connect 23 0 18 0;
#X connect 24 0 11 0;
#X connect 25 0 10 0;
#X connect 27 0 2 2;
#X connect 29 0 8 0;
#X connect 30 0 32 0;
#X connect 30 1 32 1;
#X connect 31 0 30 0;
#X connect 32 0 34 0;
#X connect 33 0 32 0;
#X connect 35 0 14 0;
#X restore -51 115 pd DEBUG;
#X obj 91 96 r \$1-Pos-Y;
#X obj 56 73 r \$1-Pos-X;
#X obj 105 450 r \$1-Tamanho;
#X obj 21 381 scaleXYZ 1 1 1;
#X obj 21 -13 gemhead 1;
#X obj 21 144 translateXYZ 0 0 0;
#X obj 51 188 r \$1-Colide;
#X obj 51 218 == 0;
#X obj 59 530 textextruded;
#X msg -85 563 \; \$1-Size bang \; \$1-TextReader read texto2.txt \;
\$1-TextReader rewind \; \$1-TextPart bang \; \$1-TextReader go bang
\; \$1-Start bang \; \$1-RandomState bang \; \$1-RandomPos bang \;
\$1-Debug 0 \; \$1-ToText2d depth 1 \;;
#X obj 21 321 colourRGB 1 1 1.1 1;
#N canvas 425 162 363 452 Rebenta 0;
#X obj 45 258 outlet;
#X obj 44 -43 r Rebenta;
#X obj 40 178 line 0 2;
#X obj 141 83 r init;
#X msg 132 118 0;
#X msg 75 122 0;
#X obj 45 88 t f b;
#X obj 41 -9 b;
#X obj 54 216 pow 2;
#X msg 15 125 2 \$1;
#X obj 38 46 random 5000;
#X connect 1 0 7 0;
#X connect 2 0 8 0;
#X connect 3 0 4 0;
#X connect 4 0 2 0;
#X connect 5 0 2 0;
#X connect 6 0 9 0;
#X connect 6 1 5 0;
#X connect 7 0 10 0;
#X connect 8 0 0 0;
#X connect 9 0 2 0;
#X connect 10 0 6 0;
#X restore 126 121 pd Rebenta;
#X obj 21 44 alpha;
#N canvas 44 441 450 300 PushUp 0;
#X obj 170 188 sin;
#X floatatom 197 154 5 0 0 0 - - -;
#X obj 170 118 line;
#X obj 157 253 + 1;
#X obj 208 4 r \$1-Colide;
#X obj 208 31 sel 1;
#X obj 225 55 b;
#X obj 155 222 * 0.29;
#X msg 212 79 0 150;
#X msg 149 76 1.3 150;
#X obj 157 278 outlet;
#X connect 0 0 7 0;
#X connect 1 0 0 0;
#X connect 2 0 0 0;
#X connect 3 0 10 0;
#X connect 4 0 5 0;
#X connect 5 0 9 0;
#X connect 5 1 6 0;
#X connect 6 0 8 0;
#X connect 7 0 3 0;
#X connect 8 0 2 0;
#X connect 9 0 2 0;
#X restore 48 351 pd PushUp;
#X msg 179 272 0.3;
#X obj 181 213 r \$1-Stop;
#X obj 221 238 r \$1-Start;
#X obj 182 242 b;
#X obj 225 261 b;
#X msg 222 291 1;
#X obj 51 247 * 1;
#X obj 167 318 t f f;
#X obj 227 322 t f f;
#X obj 375 221 random 76;
#X connect 0 0 40 1;
#X connect 1 0 5 0;
#X connect 1 0 20 1;
#X connect 1 1 3 0;
#X connect 2 0 1 0;
#X connect 4 0 1 0;
#X connect 5 0 16 0;
#X connect 6 0 40 0;
#X connect 7 0 23 0;
#X connect 8 0 1 0;
#X connect 9 0 7 0;
#X connect 10 0 15 0;
#X connect 11 0 41 0;
#X connect 12 0 1 0;
#X connect 13 0 12 1;
#X connect 14 0 55 0;
#X connect 15 0 19 0;
#X connect 15 1 1 0;
#X connect 17 0 40 0;
#X connect 18 0 19 0;
#X connect 19 0 21 0;
#X connect 19 1 12 0;
#X connect 20 0 22 0;
#X connect 21 0 20 0;
#X connect 23 0 11 0;
#X connect 23 1 6 0;
#X connect 24 0 42 4;
#X connect 25 0 44 0;
#X connect 25 1 24 0;
#X connect 26 0 1 0;
#X connect 27 0 12 0;
#X connect 28 0 13 0;
#X connect 32 0 37 2;
#X connect 33 0 37 1;
#X connect 34 0 0 0;
#X connect 35 0 40 0;
#X connect 36 0 25 0;
#X connect 37 0 42 0;
#X connect 38 0 39 0;
#X connect 39 0 52 0;
#X connect 42 0 35 0;
#X connect 43 0 37 3;
#X connect 44 0 37 0;
#X connect 45 0 35 1;
#X connect 45 0 35 2;
#X connect 46 0 53 0;
#X connect 47 0 49 0;
#X connect 48 0 50 0;
#X connect 49 0 46 0;
#X connect 50 0 51 0;
#X connect 51 0 54 0;
#X connect 52 0 42 2;
#X connect 52 0 42 3;
#X connect 53 0 42 1;
#X connect 53 0 42 3;
#X connect 53 1 52 1;
#X connect 54 0 42 1;
#X connect 54 0 42 3;
#X connect 54 1 52 1;
#X connect 55 0 28 0;
