#N canvas 1 81 1009 418 10;
#X obj 45 24 table POSX;
#X obj 22 65 r 1-Pos-X;
#X obj 22 147 tabwrite POSX;
#X obj 54 91 loadbang;
#X msg 54 112 0;
#X obj 114 149 tabwrite POSX;
#X obj 146 93 loadbang;
#X msg 146 114 1;
#X obj 114 67 r 2-Pos-X;
#X obj 206 151 tabwrite POSX;
#X obj 238 95 loadbang;
#X obj 206 69 r 3-Pos-X;
#X msg 238 116 2;
#X obj 308 150 tabwrite POSX;
#X obj 340 94 loadbang;
#X obj 308 68 r 4-Pos-X;
#X msg 340 115 3;
#X obj 404 154 tabwrite POSX;
#X obj 436 98 loadbang;
#X obj 404 73 r 5-Pos-X;
#X msg 436 120 4;
#X obj 498 150 tabwrite POSX;
#X obj 530 94 loadbang;
#X obj 498 69 r 6-Pos-X;
#X msg 530 116 5;
#X obj 597 145 tabwrite POSX;
#X obj 629 89 loadbang;
#X obj 597 64 r 7-Pos-X;
#X msg 629 111 6;
#X obj 702 148 tabwrite POSX;
#X obj 734 92 loadbang;
#X obj 702 67 r 8-Pos-X;
#X msg 734 115 7;
#X obj 798 149 tabwrite POSX;
#X obj 830 93 loadbang;
#X obj 798 68 r 9-Pos-X;
#X msg 830 116 8;
#X obj 898 148 tabwrite POSX;
#X obj 929 92 loadbang;
#X obj 899 67 r 10-Pos-X;
#X msg 929 116 9;
#X obj 22 257 tabwrite POSX;
#X obj 54 201 loadbang;
#X obj 114 259 tabwrite POSX;
#X obj 146 203 loadbang;
#X obj 206 261 tabwrite POSX;
#X obj 238 205 loadbang;
#X obj 308 260 tabwrite POSX;
#X obj 340 204 loadbang;
#X obj 404 264 tabwrite POSX;
#X obj 436 208 loadbang;
#X obj 498 260 tabwrite POSX;
#X obj 530 204 loadbang;
#X obj 597 255 tabwrite POSX;
#X obj 629 199 loadbang;
#X obj 702 258 tabwrite POSX;
#X obj 734 202 loadbang;
#X obj 798 259 tabwrite POSX;
#X obj 830 203 loadbang;
#X obj 898 258 tabwrite POSX;
#X obj 929 202 loadbang;
#X obj 22 175 r 11-Pos-X;
#X obj 114 177 r 12-Pos-X;
#X obj 206 179 r 13-Pos-X;
#X obj 308 178 r 14-Pos-X;
#X obj 404 183 r 15-Pos-X;
#X obj 498 179 r 16-Pos-X;
#X obj 597 174 r 17-Pos-X;
#X obj 702 177 r 18-Pos-X;
#X obj 798 178 r 19-Pos-X;
#X obj 899 177 r 20-Pos-X;
#X msg 929 226 19;
#X msg 830 226 18;
#X msg 734 225 17;
#X msg 629 221 16;
#X msg 530 226 15;
#X msg 436 230 14;
#X msg 340 225 13;
#X msg 238 226 12;
#X msg 146 224 11;
#X msg 55 221 10;
#X obj 22 368 tabwrite POSX;
#X obj 54 312 loadbang;
#X obj 114 370 tabwrite POSX;
#X obj 146 314 loadbang;
#X obj 206 372 tabwrite POSX;
#X obj 238 316 loadbang;
#X obj 308 371 tabwrite POSX;
#X obj 340 315 loadbang;
#X obj 404 375 tabwrite POSX;
#X obj 436 319 loadbang;
#X obj 498 371 tabwrite POSX;
#X obj 530 315 loadbang;
#X obj 597 366 tabwrite POSX;
#X obj 629 310 loadbang;
#X obj 702 369 tabwrite POSX;
#X obj 734 313 loadbang;
#X obj 798 370 tabwrite POSX;
#X obj 830 314 loadbang;
#X obj 898 369 tabwrite POSX;
#X obj 929 313 loadbang;
#X obj 22 286 r 21-Pos-X;
#X obj 114 288 r 22-Pos-X;
#X obj 206 290 r 23-Pos-X;
#X obj 308 289 r 24-Pos-X;
#X obj 404 294 r 25-Pos-X;
#X obj 498 290 r 26-Pos-X;
#X obj 597 285 r 27-Pos-X;
#X obj 702 288 r 28-Pos-X;
#X obj 798 289 r 29-Pos-X;
#X obj 899 288 r 30-Pos-X;
#X msg 929 337 29;
#X msg 830 337 28;
#X msg 734 336 27;
#X msg 629 332 26;
#X msg 530 337 25;
#X msg 436 341 24;
#X msg 340 336 23;
#X msg 238 337 22;
#X msg 146 335 21;
#X msg 54 333 20;
#X connect 1 0 2 0;
#X connect 3 0 4 0;
#X connect 4 0 2 1;
#X connect 6 0 7 0;
#X connect 7 0 5 1;
#X connect 8 0 5 0;
#X connect 10 0 12 0;
#X connect 11 0 9 0;
#X connect 12 0 9 1;
#X connect 14 0 16 0;
#X connect 15 0 13 0;
#X connect 16 0 13 1;
#X connect 18 0 20 0;
#X connect 19 0 17 0;
#X connect 20 0 17 1;
#X connect 22 0 24 0;
#X connect 23 0 21 0;
#X connect 24 0 21 1;
#X connect 26 0 28 0;
#X connect 27 0 25 0;
#X connect 28 0 25 1;
#X connect 30 0 32 0;
#X connect 31 0 29 0;
#X connect 32 0 29 1;
#X connect 34 0 36 0;
#X connect 35 0 33 0;
#X connect 36 0 33 1;
#X connect 38 0 40 0;
#X connect 39 0 37 0;
#X connect 40 0 37 1;
#X connect 42 0 80 0;
#X connect 44 0 79 0;
#X connect 46 0 78 0;
#X connect 48 0 77 0;
#X connect 50 0 76 0;
#X connect 52 0 75 0;
#X connect 54 0 74 0;
#X connect 56 0 73 0;
#X connect 58 0 72 0;
#X connect 60 0 71 0;
#X connect 61 0 41 0;
#X connect 62 0 43 0;
#X connect 63 0 45 0;
#X connect 64 0 47 0;
#X connect 65 0 49 0;
#X connect 66 0 51 0;
#X connect 67 0 53 0;
#X connect 68 0 55 0;
#X connect 69 0 57 0;
#X connect 70 0 59 0;
#X connect 71 0 59 1;
#X connect 72 0 57 1;
#X connect 73 0 55 1;
#X connect 74 0 53 1;
#X connect 75 0 51 1;
#X connect 76 0 49 1;
#X connect 77 0 47 1;
#X connect 78 0 45 1;
#X connect 79 0 43 1;
#X connect 80 0 41 1;
#X connect 82 0 120 0;
#X connect 84 0 119 0;
#X connect 86 0 118 0;
#X connect 88 0 117 0;
#X connect 90 0 116 0;
#X connect 92 0 115 0;
#X connect 94 0 114 0;
#X connect 96 0 113 0;
#X connect 98 0 112 0;
#X connect 100 0 111 0;
#X connect 101 0 81 0;
#X connect 102 0 83 0;
#X connect 103 0 85 0;
#X connect 104 0 87 0;
#X connect 105 0 89 0;
#X connect 106 0 91 0;
#X connect 107 0 93 0;
#X connect 108 0 95 0;
#X connect 109 0 97 0;
#X connect 110 0 99 0;
#X connect 111 0 99 1;
#X connect 112 0 97 1;
#X connect 113 0 95 1;
#X connect 114 0 93 1;
#X connect 115 0 91 1;
#X connect 116 0 89 1;
#X connect 117 0 87 1;
#X connect 118 0 85 1;
#X connect 119 0 83 1;
#X connect 120 0 81 1;
