#N canvas 122 93 858 727 10;
#X obj 582 130 gemwin;
#X msg 601 86 destroy;
#X obj 481 221 s init;
#X obj 481 201 bng 15 250 50 0 empty empty empty 17 7 0 10 -262144
-1 -1;
#N canvas 154 87 934 781 MOVIMENTO 0;
#X obj -180 95 pix_video;
#X obj -180 169 pix_flip;
#X msg -25 185 horizontal;
#X obj 2 133 loadbang;
#X obj 72 470 pix_movement;
#X obj 74 542 pix_blob;
#X obj -179 60 alpha;
#X msg 124 505 4;
#X obj 92 874 s X-BlobPos;
#X obj 202 872 s Y-BlobPos;
#X obj 290 98 r X-BlobPos;
#X obj 326 118 r Y-BlobPos;
#X floatatom 141 440 5 0 0 0 - - -;
#X floatatom 528 394 5 0 0 0 - - -;
#X floatatom 469 46 5 0 0 0 - - -;
#X floatatom 524 56 5 0 0 0 - - -;
#X obj 444 -80 gemmouse 1 1;
#X obj 456 -24 * 10.6;
#X obj 454 -2 - 5.3;
#X obj 547 -29 * 8;
#X obj 545 -7 - 4;
#X obj 551 25 * -1;
#X obj 500 133 s X-BlobPos;
#X obj 624 161 s Y-BlobPos;
#X obj -170 -19 tgl 15 0 empty empty empty 17 7 0 10 -262144 -1 -1
0 1;
#X floatatom 110 849 5 0 0 0 - - -;
#X floatatom 218 848 5 0 0 0 - - -;
#X obj 255 149 translateXYZ 0 0 1.1;
#X floatatom 348 60 5 0 0 0 - - -;
#X floatatom 399 64 5 0 0 0 - - -;
#X obj 293 591 > 0;
#X obj 92 705 * 8;
#X obj 92 729 - 4;
#X obj 256 -56 tgl 15 0 empty empty empty 17 7 0 10 -262144 -1 -1 0
1;
#X obj 293 616 change;
#X obj 293 644 s MasterColShowDot;
#X obj 451 195 r MasterColShowDot;
#X obj 324 -16 loadbang;
#X obj 207 377 loadbang;
#X msg 200 406 0.5;
#X obj 528 419 s BobSmooth-v;
#X obj 222 758 r BobSmooth-v;
#X obj 103 755 r BobSmooth-v;
#X obj 170 498 loadbang;
#X obj 92 788 pack 0 25;
#X obj 202 789 pack 0 25;
#X obj 92 816 line 0 2;
#X obj 202 816 line 0 2;
#X obj 202 695 * 8;
#X obj 202 721 - 4;
#X obj 451 247 line 0 2;
#X obj -168 876 pix_texture;
#X floatatom -52 782 5 0 0 0 - - -;
#X msg -130 64 device 0;
#X obj 364 377 pix_buffer test 5;
#X obj -180 257 pix_buffer_write test;
#X msg -123 221 0;
#X obj -180 195 t a b;
#X obj 68 400 pix_buffer_read test;
#X obj 74 287 tgl 15 0 empty empty empty 17 7 0 10 -262144 -1 -1 0
1;
#X msg 145 354 0;
#X obj 68 368 t a b;
#X floatatom -76 692 5 0 0 0 - - -;
#X obj -171 837 colourRGB 1 1 1 1;
#X obj 256 -35 gemhead -15;
#X obj -360 601 bng 15 250 50 0 empty empty empty 17 7 0 10 -262144
-1 -1;
#X obj 67 315 gemhead -14;
#X obj 563 322 loadbang;
#X obj 432 631 s BBSize;
#X obj 288 240 r BBSize;
#X floatatom 321 404 5 0 0 0 - - -;
#X floatatom -134 914 5 0 0 0 - - -;
#X floatatom -89 910 5 0 0 0 - - -;
#X obj -179 10 gemhead -13;
#X obj 68 432 pix_rgba;
#X obj -170 730 translateXYZ 0 0 -2;
#X obj -173 959 rectangle 8 6;
#X obj 441 708 print;
#X obj 405 577 line 0 2;
#X msg 562 362 200;
#X obj 190 639 s BlobTamanho;
#X obj 211 599 * 4;
#X obj 433 330 print;
#X obj 291 431 * 160;
#X obj 255 58 pix_image;
#X msg 291 24 open bocaloca.png;
#X obj 255 -4 alpha;
#X obj 255 216 pix_texture;
#X obj 255 180 colourRGB 1 1 1 1;
#X obj 255 266 square;
#X obj 393 553 pack 0 150;
#X obj 451 220 pack 0 200;
#X connect 0 0 1 0;
#X connect 1 0 57 0;
#X connect 2 0 1 0;
#X connect 3 0 2 0;
#X connect 4 0 5 0;
#X connect 5 1 31 0;
#X connect 5 2 48 0;
#X connect 5 3 30 0;
#X connect 5 3 80 0;
#X connect 5 3 83 0;
#X connect 6 0 0 0;
#X connect 7 0 5 1;
#X connect 10 0 27 1;
#X connect 11 0 27 2;
#X connect 12 0 4 1;
#X connect 13 0 40 0;
#X connect 16 0 17 0;
#X connect 16 1 19 0;
#X connect 17 0 18 0;
#X connect 18 0 14 0;
#X connect 19 0 20 0;
#X connect 20 0 21 0;
#X connect 21 0 15 0;
#X connect 24 0 73 0;
#X connect 27 0 88 0;
#X connect 28 0 27 1;
#X connect 29 0 27 2;
#X connect 30 0 34 0;
#X connect 31 0 32 0;
#X connect 32 0 44 0;
#X connect 33 0 64 0;
#X connect 34 0 35 0;
#X connect 36 0 91 0;
#X connect 37 0 85 0;
#X connect 38 0 39 0;
#X connect 39 0 12 0;
#X connect 41 0 45 1;
#X connect 42 0 44 1;
#X connect 43 0 7 0;
#X connect 44 0 46 0;
#X connect 45 0 47 0;
#X connect 46 0 25 0;
#X connect 46 0 8 0;
#X connect 47 0 26 0;
#X connect 47 0 9 0;
#X connect 48 0 49 0;
#X connect 49 0 45 0;
#X connect 51 0 76 0;
#X connect 52 0 63 4;
#X connect 53 0 0 0;
#X connect 56 0 55 1;
#X connect 57 0 55 0;
#X connect 57 1 56 0;
#X connect 58 0 74 0;
#X connect 59 0 66 0;
#X connect 60 0 58 1;
#X connect 61 0 58 0;
#X connect 61 1 60 0;
#X connect 62 0 75 3;
#X connect 63 0 51 0;
#X connect 64 0 86 0;
#X connect 66 0 61 0;
#X connect 67 0 79 0;
#X connect 69 0 89 1;
#X connect 70 0 83 1;
#X connect 71 0 76 1;
#X connect 72 0 76 2;
#X connect 73 0 6 0;
#X connect 74 0 4 0;
#X connect 75 0 63 0;
#X connect 78 0 68 0;
#X connect 79 0 13 0;
#X connect 83 0 90 0;
#X connect 84 0 27 0;
#X connect 85 0 84 0;
#X connect 86 0 84 0;
#X connect 87 0 89 0;
#X connect 88 0 87 0;
#X connect 90 0 78 0;
#X connect 91 0 50 0;
#X restore 481 284 pd MOVIMENTO;
#X obj 575 284 s MasterColSw;
#X obj 575 253 tgl 15 0 empty empty empty 17 7 0 10 -262144 -1 -1 0
1;
#X obj 73 468 s;
#X floatatom 88 412 5 1 30 0 - - -;
#X obj 36 416 tgl 15 0 empty empty empty 17 7 0 10 -262144 -1 -1 0
1;
#X msg 88 441 symbol \$1-Debug;
#N canvas 615 117 747 736 TESTES 0;
#X msg -496 40 font monof55.ttf;
#X obj -408 96 gemhead;
#X obj -158 121 gemhead;
#X obj -156 528 rectangle 0.1 0.1;
#X obj -410 173 translateXYZ 0 0 0;
#X obj -156 196 translateXYZ 0 0 0;
#X floatatom -113 157 5 0 0 0 - - -;
#X floatatom -71 161 5 0 0 0 - - -;
#X floatatom -71 83 5 0 0 0 - - -;
#X floatatom -52 3 5 0 0 0 - - -;
#X obj -52 42 t b f;
#X floatatom -318 118 5 0 0 0 - - -;
#X obj -440 399 text3d;
#X obj -399 71 tgl 15 0 empty empty empty 17 7 0 10 -262144 -1 -1 0
1;
#X obj -336 -11 tgl 15 0 empty empty empty 17 7 0 10 -262144 -1 -1
0 1;
#X msg -347 23 compat \$1;
#X floatatom -322 234 5 0 0 0 - - -;
#X floatatom -57 495 5 0 0 0 - - -;
#X obj -257 47 tgl 15 0 empty empty empty 17 7 0 10 -262144 -1 -1 0
1;
#X obj -256 -29 loadbang;
#X msg -255 -4 0;
#X obj -174 73 tgl 15 0 empty empty empty 17 7 0 10 -262144 -1 -1 0
1;
#X floatatom -107 496 5 0 0 0 - - -;
#X floatatom -182 -28 5 0 0 0 - - -;
#X floatatom -122 -27 5 0 0 0 - - -;
#X floatatom -387 347 5 0 0 0 - - -;
#X obj -86 -101 *;
#X floatatom -87 -133 5 0 0 0 - - -;
#X obj 103 123 s Size-Test;
#X floatatom 110 80 5 0 0 0 - - -;
#X obj -71 123 -;
#X obj -33 -179 r Size-Test;
#X obj -38 -151 t b f;
#X obj -52 -48 r Size-Test;
#X obj -383 321 r Size-Test;
#X obj -52 -23 * 0.00666;
#X obj 100 178 s carN-est;
#X floatatom 100 151 5 0 0 0 - - -;
#X obj -107 461 *;
#X obj -94 299 r Size-Test;
#X obj -107 270 r carN-est;
#X obj -82 354 t b f;
#X floatatom -82 329 5 0 0 0 - - -;
#X obj -94 421 t b f;
#X msg -400 249 text OOOO;
#X msg -376 286 text "0000";
#X obj -156 231 colourRGB 1 0 0 1;
#X obj -94 388 * 0.016;
#X obj -16 349 r Size-Test;
#X obj -4 416 t b f;
#X floatatom -4 391 5 0 0 0 - - -;
#X obj -16 457 * 0.021;
#X connect 0 0 12 0;
#X connect 1 0 4 0;
#X connect 2 0 5 0;
#X connect 4 0 12 0;
#X connect 5 0 46 0;
#X connect 6 0 5 1;
#X connect 7 0 5 2;
#X connect 8 0 4 2;
#X connect 8 0 30 0;
#X connect 9 0 10 0;
#X connect 10 0 8 0;
#X connect 10 1 30 1;
#X connect 11 0 4 3;
#X connect 14 0 15 0;
#X connect 17 0 3 2;
#X connect 18 0 1 0;
#X connect 18 0 2 0;
#X connect 19 0 20 0;
#X connect 20 0 18 0;
#X connect 21 0 2 0;
#X connect 22 0 3 1;
#X connect 23 0 4 1;
#X connect 23 0 5 1;
#X connect 24 0 4 2;
#X connect 24 0 8 0;
#X connect 25 0 12 1;
#X connect 27 0 26 0;
#X connect 29 0 28 0;
#X connect 30 0 7 0;
#X connect 31 0 32 0;
#X connect 32 0 26 0;
#X connect 32 1 26 1;
#X connect 33 0 35 0;
#X connect 34 0 25 0;
#X connect 35 0 9 0;
#X connect 37 0 36 0;
#X connect 38 0 22 0;
#X connect 39 0 47 0;
#X connect 40 0 38 0;
#X connect 41 0 47 0;
#X connect 41 1 47 1;
#X connect 42 0 41 0;
#X connect 43 0 38 0;
#X connect 43 1 38 1;
#X connect 44 0 12 0;
#X connect 45 0 12 0;
#X connect 46 0 3 0;
#X connect 47 0 43 0;
#X connect 48 0 51 0;
#X connect 49 0 51 0;
#X connect 49 1 51 1;
#X connect 50 0 49 0;
#X connect 51 0 17 0;
#X restore 25 340 pd TESTES;
#N canvas 419 148 971 726 PONTOS 0;
#X obj 465 499 list-compare;
#X obj 21 310 table Pontos;
#X obj 374 270 tabread Pontos;
#X msg 374 297 add2 \$1;
#X msg 465 347 set list;
#X obj 384 213 f;
#X obj 418 99 bng 15 250 50 0 empty empty empty 17 7 0 10 -262144 -1
-1;
#X msg 447 171 0;
#X obj 419 210 + 1;
#X obj 446 127 t b b b;
#X msg 534 461 list 1 1 1 1 1 1 1 1 1 1 1 1 1 1 1 1 1 1 1 1 1 1 1 1
1 1 1 1 1 1;
#X floatatom 330 590 5 0 0 0 - - -;
#X msg 465 401 list 1 1 1 1 1 0 1 1 1 1 1 0 1 1 1 1 0 1 0 1 1 1 1 1
0 1 1 0 1 0;
#X obj 341 237 sel 30;
#X obj 384 182 uzi 31;
#X obj 401 39 r ChekaPontos;
#X obj 534 439 loadbang;
#X obj 465 560 sel 1;
#X obj 465 585 t b b;
#X msg 409 629 1;
#X obj 492 637 bng 15 250 50 0 empty empty empty 17 7 0 10 -262144
-1 -1;
#X obj 465 531 change;
#X obj 215 551 f;
#X obj 249 551 + 1;
#X floatatom 218 592 5 0 0 0 - - -;
#X obj 232 289 s Pontos;
#X obj 220 468 list-drip;
#X obj 217 505 sel 1;
#X msg 298 518 1;
#X obj 206 629 outlet;
#X obj 268 626 s PONTOS;
#X obj 137 537 r init;
#X msg 162 569 0;
#X obj 409 656 s Rebenta;
#X msg 492 675 \; init bang \;;
#X obj 492 609 delay 17000;
#X connect 0 0 11 0;
#X connect 0 0 21 0;
#X connect 2 0 3 0;
#X connect 3 0 12 0;
#X connect 4 0 12 0;
#X connect 5 0 8 0;
#X connect 5 0 13 0;
#X connect 6 0 9 0;
#X connect 7 0 5 1;
#X connect 8 0 5 1;
#X connect 9 0 14 0;
#X connect 9 1 4 0;
#X connect 9 2 7 0;
#X connect 10 0 0 1;
#X connect 12 0 0 0;
#X connect 12 0 26 0;
#X connect 13 0 12 0;
#X connect 13 1 2 0;
#X connect 14 0 5 0;
#X connect 15 0 6 0;
#X connect 16 0 10 0;
#X connect 17 0 18 0;
#X connect 18 0 19 0;
#X connect 18 1 35 0;
#X connect 19 0 33 0;
#X connect 20 0 34 0;
#X connect 21 0 17 0;
#X connect 22 0 23 0;
#X connect 22 0 24 0;
#X connect 23 0 22 1;
#X connect 24 0 29 0;
#X connect 24 0 30 0;
#X connect 26 0 27 0;
#X connect 26 1 28 0;
#X connect 27 0 22 0;
#X connect 28 0 22 1;
#X connect 31 0 32 0;
#X connect 32 0 24 0;
#X connect 35 0 20 0;
#X restore 483 319 pd PONTOS;
#X obj 483 353 nbx 2 40 -1e+37 1e+37 0 0 empty empty empty 0 -8 0 35
-262144 -1 -1 0 256;
#X floatatom 377 -138 5 0 0 0 - - -;
#X obj 451 -163 key;
#X obj 448 -114 spigot;
#X obj 486 -143 tgl 15 0 empty empty empty 17 7 0 10 -262144 -1 -1
0 1;
#X obj 449 -80 sel 97 115;
#X msg 361 43 dimen 640 480 \, FSAA 7 \, fps 30 \, fullscreen 0 \,
create \, 1;
#X obj 537 182 tgl 15 0 empty empty empty 17 7 0 10 -262144 -1 -1 0
1;
#X obj 519 154 r MasterColSw;
#N canvas 312 397 147 185 POSITIONS 0;
#X obj -9 21 check-pos-X;
#X obj -3 63 check-pos-Y;
#X restore 223 371 pd POSITIONS;
#X obj 40 82 BLOCO 1;
#N canvas 673 280 523 487 LUZ 0;
#X obj 53 186 cnv 15 150 100 empty empty empty 20 12 0 14 -24198 -66577
0;
#X obj 55 -45 gemhead;
#X obj 62 317 light;
#X obj 105 189 tgl 15 0 empty empty empty 0 -6 0 8 -262144 -1 -1 0
1;
#X msg 105 210 debug \$1;
#X floatatom 150 -10 5 0 0 0 - - -;
#X obj 61 165 translateXYZ 2 0 0;
#X floatatom 94 99 5 1 4 0 - - -;
#X obj 70 201 tgl 20 0 empty \$0-onoff empty 17 7 0 10 -262144 -1 -1
0 1;
#X floatatom 152 101 5 0 0 0 - - -;
#X obj 273 100 gemhead;
#X obj 284 236 world_light;
#X floatatom 197 -3 5 0 0 0 - - -;
#X obj 93 26 rotateXYZ -18 276 0;
#X obj 286 167 rotateXYZ 0 0 0;
#X obj 326 116 r rodafundo;
#X floatatom 210 124 5 0 0 0 - - -;
#X obj 300 206 tgl 20 0 empty \$0-onoff empty 17 7 0 10 -262144 -1
-1 0 1;
#X msg 133 294 0.7 0.7 0.7;
#X msg 223 369 \$1 \$1 \$1;
#X floatatom 228 332 5 0 0 0 - - -;
#X connect 1 0 13 0;
#X connect 3 0 4 0;
#X connect 4 0 2 0;
#X connect 5 0 13 1;
#X connect 6 0 2 0;
#X connect 7 0 6 1;
#X connect 8 0 2 0;
#X connect 9 0 6 2;
#X connect 10 0 14 0;
#X connect 12 0 13 2;
#X connect 13 0 6 0;
#X connect 14 0 11 0;
#X connect 15 0 14 1;
#X connect 16 0 6 3;
#X connect 17 0 11 0;
#X connect 18 0 2 1;
#X connect 19 0 2 1;
#X connect 20 0 19 0;
#X restore 358 427 pd LUZ;
#N canvas 188 229 972 467 FUNDO 0;
#X obj 49 261 cone 15;
#X obj 54 206 rotateXYZ 90 180 0;
#X obj 280 120 t b b;
#X msg 394 160 0;
#X obj 290 200 line;
#X obj 286 229 / 360;
#X obj 289 261 * 6.28319;
#X obj 253 273 sin;
#X obj 219 313 * 50;
#X obj 330 61 tgl 15 0 empty empty empty 17 7 0 10 -262144 -1 -1 1
1;
#X floatatom 64 74 5 0 0 0 - - -;
#X floatatom 117 73 5 0 0 0 - - -;
#X floatatom 151 79 5 0 0 0 - - -;
#X floatatom 374 84 5 0 0 0 - - -;
#X obj 311 303 s rodafundo;
#X obj 91 178 r rodafundo;
#X obj 321 31 loadbang;
#X obj 265 89 metro 60000;
#X obj 291 163 pack 360 50000;
#X obj 60 141 colourRGB 0.65 0.47 0 1;
#X obj 629 98 rgb2hsv;
#X obj 629 134 unpack f f f;
#X obj 624 336 pack f f f;
#X obj 624 370 hsv2rgb;
#X obj 625 410 print;
#X msg 630 55 0.65 0.47 0;
#X floatatom 725 180 5 0 0 0 - - -;
#X floatatom 673 172 5 0 0 0 - - -;
#X floatatom 537 164 5 0 0 0 - - -;
#X floatatom 498 310 5 0 0 0 - - -;
#X floatatom 486 239 5 0 0 0 - - -;
#X obj 623 187 * 360;
#X obj 600 266 mod 360;
#X obj 493 275 mod 360;
#X floatatom 568 330 5 0 0 0 - - -;
#X obj 605 292 / 360;
#X obj 597 211 - 90;
#X obj 41 17 alpha;
#X obj 62 -73 tgl 15 0 empty empty empty 17 7 0 10 -262144 -1 -1 0
1;
#X obj 46 -21 gemhead 10;
#X msg 136 -54 set 1;
#X msg 217 -54 set 10;
#X floatatom 115 239 5 0 0 0 - - -;
#X connect 1 0 0 0;
#X connect 2 0 18 0;
#X connect 2 1 3 0;
#X connect 3 0 4 0;
#X connect 4 0 5 0;
#X connect 5 0 6 0;
#X connect 6 0 7 0;
#X connect 7 0 8 0;
#X connect 8 0 14 0;
#X connect 9 0 17 0;
#X connect 10 0 19 1;
#X connect 11 0 19 2;
#X connect 12 0 19 3;
#X connect 13 0 17 1;
#X connect 13 0 18 1;
#X connect 15 0 1 1;
#X connect 16 0 9 0;
#X connect 16 0 40 0;
#X connect 17 0 2 0;
#X connect 18 0 4 0;
#X connect 19 0 1 0;
#X connect 20 0 21 0;
#X connect 21 0 28 0;
#X connect 21 0 31 0;
#X connect 21 1 22 1;
#X connect 21 1 27 0;
#X connect 21 2 22 2;
#X connect 21 2 26 0;
#X connect 22 0 23 0;
#X connect 23 0 24 0;
#X connect 25 0 20 0;
#X connect 30 0 33 0;
#X connect 31 0 36 0;
#X connect 32 0 34 0;
#X connect 32 0 35 0;
#X connect 33 0 29 0;
#X connect 35 0 22 0;
#X connect 36 0 32 0;
#X connect 37 0 19 0;
#X connect 38 0 39 0;
#X connect 39 0 37 0;
#X connect 40 0 39 0;
#X connect 41 0 39 0;
#X connect 42 0 0 2;
#X restore 362 389 pd FUNDO;
#X text 487 497 FLOATING POEM labIO - 23 Mar 2014;
#X obj 384 196 vsl 15 128 0 4 0 0 empty empty empty 0 -9 0 10 -262144
-1 -1 0 1;
#X obj 383 158 r BBSize;
#X obj 221 470 r MasterColShowDot;
#X obj 218 492 tgl 15 0 empty empty empty 17 7 0 10 -262144 -1 -1 0
1;
#X obj 252 82 BLOCO 22;
#X obj 99 157 BLOCO 11;
#X obj 179 157 BLOCO 18;
#X obj 252 182 BLOCO 26;
#X obj 101 231 BLOCO 14;
#X obj 179 232 BLOCO 21;
#X obj 40 182 BLOCO 5;
#X obj 99 82 BLOCO 8;
#X obj 40 107 BLOCO 2;
#X obj 40 132 BLOCO 3;
#X obj 40 157 BLOCO 4;
#X obj 40 207 BLOCO 6;
#X obj 40 232 BLOCO 7;
#X obj 99 107 BLOCO 9;
#X obj 99 132 BLOCO 10;
#X obj 99 182 BLOCO 12;
#X obj 99 207 BLOCO 13;
#X obj 179 82 BLOCO 15;
#X obj 179 107 BLOCO 16;
#X obj 179 132 BLOCO 17;
#X obj 179 182 BLOCO 19;
#X obj 179 207 BLOCO 20;
#X obj 252 107 BLOCO 23;
#X obj 252 132 BLOCO 24;
#X obj 252 157 BLOCO 25;
#X obj 253 213 BLOCO 27;
#X obj 254 236 BLOCO 28;
#X obj 326 82 BLOCO 29;
#X obj 331 109 BLOCO 30;
#N canvas 291 198 535 429 INFO 0;
#X obj 58 -94 gemhead;
#X obj 58 29 pix_image;
#X obj 58 64 pix_texture;
#X msg 147 -47 open Fim.png;
#X obj 63 -48 alpha;
#X obj 58 134 colorRGB 1 1 1 0;
#X floatatom 159 88 5 0 0 0 - - -;
#X obj 217 79 line 0 2;
#X msg 235 30 0;
#X obj 325 22 r Rebenta;
#X obj 319 48 t b b;
#X msg 395 110 0 \, 1 5000;
#X msg 275 188 1 \, 0 2000;
#X obj 407 80 delay 3000;
#X obj 266 -29 loadbang;
#X obj 285 122 delay 15000;
#X obj 58 180 rectangle 4.4 3.3;
#X connect 0 0 4 0;
#X connect 1 0 2 0;
#X connect 2 0 5 0;
#X connect 3 0 1 0;
#X connect 4 0 1 0;
#X connect 5 0 16 0;
#X connect 6 0 5 4;
#X connect 7 0 5 4;
#X connect 9 0 10 0;
#X connect 10 0 15 0;
#X connect 10 1 13 0;
#X connect 11 0 7 0;
#X connect 12 0 7 0;
#X connect 13 0 11 0;
#X connect 14 0 3 0;
#X connect 15 0 12 0;
#X restore 239 303 pd INFO;
#X msg 114 -15 reset \, dimen 1024 768 \, FSAA 8 \, fps 30 \, offset
1592 144 \, border 1 \, lighting 1 \, create \, 1;
#X connect 1 0 0 0;
#X connect 3 0 2 0;
#X connect 6 0 5 0;
#X connect 8 0 10 0;
#X connect 9 0 7 0;
#X connect 10 0 7 1;
#X connect 12 0 13 0;
#X connect 15 0 14 0;
#X connect 15 0 16 0;
#X connect 16 0 18 0;
#X connect 17 0 16 1;
#X connect 18 0 61 0;
#X connect 18 1 1 0;
#X connect 19 0 0 0;
#X connect 21 0 20 0;
#X connect 28 0 27 0;
#X connect 29 0 30 0;
#X connect 61 0 0 0;
