#N canvas 370 81 739 731 10;
#X obj 582 130 gemwin;
#X msg 601 86 destroy;
#X obj 481 221 s init;
#X obj 481 201 bng 15 250 50 0 empty empty empty 17 7 0 10 -262144
-1 -1;
#N canvas 256 79 927 781 MOVIMENTO 0;
#X obj 90 59 pix_video;
#X obj 90 92 pix_rgba;
#X obj 98 168 pix_flip;
#X msg 178 132 horizontal;
#X obj 205 80 loadbang;
#X obj 107 242 pix_movement;
#X obj 107 421 pix_blob;
#X obj 91 24 alpha;
#X msg 140 28 device 1;
#X msg 129 393 4;
#X floatatom -16 377 5 0 0 0 - - -;
#X obj 42 643 s X-BlobPos;
#X obj 152 641 s Y-BlobPos;
#X floatatom 373 255 5 0 0 0 - - -;
#X obj 350 135 r X-BlobPos;
#X obj 386 155 r Y-BlobPos;
#X floatatom 190 211 5 0 0 0 - - -;
#X floatatom 528 394 5 0 0 0 - - -;
#X obj 372 -45 tgl 15 0 empty empty empty 17 7 0 10 -262144 -1 -1 1
1;
#X obj 372 -68 inlet;
#X floatatom 469 46 5 0 0 0 - - -;
#X floatatom 524 56 5 0 0 0 - - -;
#X obj 444 -80 gemmouse 1 1;
#X obj 456 -24 * 10.6;
#X obj 454 -2 - 5.3;
#X obj 547 -29 * 8;
#X obj 545 -7 - 4;
#X obj 551 25 * -1;
#X obj 500 133 s X-BlobPos;
#X obj 624 161 s Y-BlobPos;
#X obj -11 327 s vid;
#X obj 91 -26 gemhead 11;
#X obj 100 -55 tgl 15 0 empty empty empty 17 7 0 10 -262144 -1 -1 0
1;
#X obj -3 283 pix_separator;
#X obj 94 212 pix_separator;
#X floatatom 60 618 5 0 0 0 - - -;
#X floatatom 168 617 5 0 0 0 - - -;
#X obj 301 46 gemhead 15;
#X obj 315 186 translateXYZ 0 0 1.1;
#X floatatom 408 97 5 0 0 0 - - -;
#X obj 316 279 circle 0.05;
#X floatatom 459 101 5 0 0 0 - - -;
#X obj 298 479 > 0;
#X obj 42 474 * 8;
#X obj 42 498 - 4;
#X obj 316 230 colourRGB 1 0 0 0;
#X obj 301 15 tgl 15 0 empty empty empty 17 7 0 10 -262144 -1 -1 0
1;
#X obj 308 -15 spigot;
#X obj 298 504 change;
#X obj 107 355 pix_separator;
#X obj 298 532 s MasterColShowDot;
#X obj 451 195 r MasterColShowDot;
#X obj 183 -39 loadbang;
#X msg 238 -18 0;
#X obj 255 205 loadbang;
#X msg 248 234 0.5;
#X obj 528 419 s BobSmooth-v;
#X obj 172 527 r BobSmooth-v;
#X obj 53 524 r BobSmooth-v;
#X obj 175 386 loadbang;
#X obj 42 557 pack 0 25;
#X obj 152 558 pack 0 25;
#X obj 107 277 t a a;
#X obj 42 585 line 0 2;
#X obj 152 585 line 0 2;
#X obj 152 464 * 8;
#X obj 152 490 - 4;
#X obj 451 247 line 0 2;
#X obj 302 77 alpha;
#X obj 451 220 pack 0 70;
#X connect 0 0 1 0;
#X connect 1 0 2 0;
#X connect 2 0 34 0;
#X connect 3 0 2 0;
#X connect 4 0 3 0;
#X connect 5 0 62 0;
#X connect 6 1 43 0;
#X connect 6 2 65 0;
#X connect 6 3 42 0;
#X connect 7 0 0 0;
#X connect 8 0 0 0;
#X connect 9 0 6 1;
#X connect 13 0 40 1;
#X connect 14 0 38 1;
#X connect 15 0 38 2;
#X connect 16 0 5 1;
#X connect 17 0 56 0;
#X connect 18 0 47 1;
#X connect 19 0 18 0;
#X connect 22 0 23 0;
#X connect 22 1 25 0;
#X connect 23 0 24 0;
#X connect 24 0 20 0;
#X connect 25 0 26 0;
#X connect 26 0 27 0;
#X connect 27 0 21 0;
#X connect 31 0 7 0;
#X connect 32 0 31 0;
#X connect 33 0 30 0;
#X connect 34 0 5 0;
#X connect 37 0 68 0;
#X connect 38 0 45 0;
#X connect 39 0 38 1;
#X connect 41 0 38 2;
#X connect 42 0 48 0;
#X connect 43 0 44 0;
#X connect 44 0 60 0;
#X connect 45 0 40 0;
#X connect 46 0 37 0;
#X connect 47 0 46 0;
#X connect 48 0 50 0;
#X connect 49 0 6 0;
#X connect 51 0 69 0;
#X connect 52 0 53 0;
#X connect 53 0 46 0;
#X connect 54 0 55 0;
#X connect 55 0 16 0;
#X connect 57 0 61 1;
#X connect 58 0 60 1;
#X connect 59 0 9 0;
#X connect 60 0 63 0;
#X connect 61 0 64 0;
#X connect 62 0 33 0;
#X connect 62 1 49 0;
#X connect 63 0 35 0;
#X connect 63 0 11 0;
#X connect 64 0 36 0;
#X connect 64 0 12 0;
#X connect 65 0 66 0;
#X connect 66 0 61 0;
#X connect 67 0 45 4;
#X connect 68 0 38 0;
#X connect 69 0 67 0;
#X restore 481 284 pd MOVIMENTO;
#X obj 481 259 tgl 15 1 empty empty empty 17 7 0 10 -262144 -1 -1 1
1;
#X text 502 255 Debug;
#X obj 575 284 s MasterColSw;
#X obj 575 253 tgl 15 0 empty empty empty 17 7 0 10 -262144 -1 -1 0
1;
#X obj 73 468 s;
#X floatatom 88 412 5 1 30 0 - - -;
#X obj 36 416 tgl 15 0 empty empty empty 17 7 0 10 -262144 -1 -1 0
1;
#X msg 88 441 symbol \$1-Debug;
#N canvas 617 116 747 736 TESTES 0;
#X msg -496 40 font monof55.ttf;
#X obj -408 96 gemhead;
#X obj -158 121 gemhead;
#X obj -156 528 rectangle 0.1 0.1;
#X obj -410 173 translateXYZ 0 0 0;
#X obj -156 196 translateXYZ 0 0 0;
#X floatatom -113 157 5 0 0 0 - - -;
#X floatatom -71 161 5 0 0 0 - - -;
#X floatatom -71 83 5 0 0 0 - - -;
#X floatatom -52 3 5 0 0 0 - - -;
#X obj -52 42 t b f;
#X floatatom -318 118 5 0 0 0 - - -;
#X obj -440 399 text3d;
#X obj -399 71 tgl 15 0 empty empty empty 17 7 0 10 -262144 -1 -1 0
1;
#X obj -336 -11 tgl 15 0 empty empty empty 17 7 0 10 -262144 -1 -1
0 1;
#X msg -347 23 compat \$1;
#X floatatom -322 234 5 0 0 0 - - -;
#X floatatom -57 495 5 0 0 0 - - -;
#X obj -257 47 tgl 15 0 empty empty empty 17 7 0 10 -262144 -1 -1 0
1;
#X obj -256 -29 loadbang;
#X msg -255 -4 0;
#X obj -174 73 tgl 15 0 empty empty empty 17 7 0 10 -262144 -1 -1 0
1;
#X floatatom -107 496 5 0 0 0 - - -;
#X floatatom -182 -28 5 0 0 0 - - -;
#X floatatom -122 -27 5 0 0 0 - - -;
#X floatatom -387 347 5 0 0 0 - - -;
#X obj -86 -101 *;
#X floatatom -87 -133 5 0 0 0 - - -;
#X obj 103 123 s Size-Test;
#X floatatom 110 80 5 0 0 0 - - -;
#X obj -71 123 -;
#X obj -33 -179 r Size-Test;
#X obj -38 -151 t b f;
#X obj -52 -48 r Size-Test;
#X obj -383 321 r Size-Test;
#X obj -52 -23 * 0.00666;
#X obj 100 178 s carN-est;
#X floatatom 100 151 5 0 0 0 - - -;
#X obj -107 461 *;
#X obj -94 299 r Size-Test;
#X obj -107 270 r carN-est;
#X obj -82 354 t b f;
#X floatatom -82 329 5 0 0 0 - - -;
#X obj -94 421 t b f;
#X msg -400 249 text OOOO;
#X msg -376 286 text "0000";
#X obj -156 231 colourRGB 1 0 0 1;
#X obj -94 388 * 0.016;
#X obj -16 349 r Size-Test;
#X obj -4 416 t b f;
#X floatatom -4 391 5 0 0 0 - - -;
#X obj -16 457 * 0.021;
#X connect 0 0 12 0;
#X connect 1 0 4 0;
#X connect 2 0 5 0;
#X connect 4 0 12 0;
#X connect 5 0 46 0;
#X connect 6 0 5 1;
#X connect 7 0 5 2;
#X connect 8 0 4 2;
#X connect 8 0 30 0;
#X connect 9 0 10 0;
#X connect 10 0 8 0;
#X connect 10 1 30 1;
#X connect 11 0 4 3;
#X connect 14 0 15 0;
#X connect 17 0 3 2;
#X connect 18 0 1 0;
#X connect 18 0 2 0;
#X connect 19 0 20 0;
#X connect 20 0 18 0;
#X connect 21 0 2 0;
#X connect 22 0 3 1;
#X connect 23 0 4 1;
#X connect 23 0 5 1;
#X connect 24 0 4 2;
#X connect 24 0 8 0;
#X connect 25 0 12 1;
#X connect 27 0 26 0;
#X connect 29 0 28 0;
#X connect 30 0 7 0;
#X connect 31 0 32 0;
#X connect 32 0 26 0;
#X connect 32 1 26 1;
#X connect 33 0 35 0;
#X connect 34 0 25 0;
#X connect 35 0 9 0;
#X connect 37 0 36 0;
#X connect 38 0 22 0;
#X connect 39 0 47 0;
#X connect 40 0 38 0;
#X connect 41 0 47 0;
#X connect 41 1 47 1;
#X connect 42 0 41 0;
#X connect 43 0 38 0;
#X connect 43 1 38 1;
#X connect 44 0 12 0;
#X connect 45 0 12 0;
#X connect 46 0 3 0;
#X connect 47 0 43 0;
#X connect 48 0 51 0;
#X connect 49 0 51 0;
#X connect 49 1 51 1;
#X connect 50 0 49 0;
#X connect 51 0 17 0;
#X restore 25 340 pd TESTES;
#N canvas 437 143 971 726 PONTOS 0;
#X obj 465 499 list-compare;
#X obj 21 310 table Pontos;
#X obj 374 270 tabread Pontos;
#X msg 374 297 add2 \$1;
#X msg 465 347 set list;
#X obj 384 213 f;
#X obj 418 99 bng 15 250 50 0 empty empty empty 17 7 0 10 -262144 -1
-1;
#X msg 447 171 0;
#X obj 419 210 + 1;
#X obj 446 127 t b b b;
#X msg 534 461 list 1 1 1 1 1 1 1 1 1 1 1 1 1 1 1 1 1 1 1 1 1 1 1 1
1 1 1 1 1 1;
#X floatatom 330 590 5 0 0 0 - - -;
#X msg 465 401 list 1 1 1 1 1 1 1 1 1 1 1 1 1 1 1 1 1 1 1 1 1 1 1 1
1 1 1 1 1 1;
#X obj 341 237 sel 30;
#X obj 384 182 uzi 31;
#X obj 401 39 r ChekaPontos;
#X obj 534 439 loadbang;
#X obj 465 560 sel 1;
#X obj 438 647 s Flick;
#X obj 465 585 t b b;
#X msg 438 620 1;
#X msg 492 675 \; Flick 0 \; init bang \;;
#X obj 492 637 bng 15 250 50 0 empty empty empty 17 7 0 10 -262144
-1 -1;
#X obj 465 531 change;
#X obj 215 551 f;
#X obj 249 551 + 1;
#X floatatom 218 592 5 0 0 0 - - -;
#X obj 232 289 s Pontos;
#X obj 220 468 list-drip;
#X obj 217 505 sel 1;
#X msg 298 518 1;
#X obj 206 629 outlet;
#X obj 268 626 s PONTOS;
#X obj 137 537 r init;
#X msg 162 569 0;
#X obj 492 609 delay 8000;
#X connect 0 0 11 0;
#X connect 0 0 23 0;
#X connect 2 0 3 0;
#X connect 3 0 12 0;
#X connect 4 0 12 0;
#X connect 5 0 8 0;
#X connect 5 0 13 0;
#X connect 6 0 9 0;
#X connect 7 0 5 1;
#X connect 8 0 5 1;
#X connect 9 0 14 0;
#X connect 9 1 4 0;
#X connect 9 2 7 0;
#X connect 10 0 0 1;
#X connect 12 0 0 0;
#X connect 12 0 28 0;
#X connect 13 0 12 0;
#X connect 13 1 2 0;
#X connect 14 0 5 0;
#X connect 15 0 6 0;
#X connect 16 0 10 0;
#X connect 17 0 19 0;
#X connect 19 0 20 0;
#X connect 19 1 35 0;
#X connect 20 0 18 0;
#X connect 22 0 21 0;
#X connect 23 0 17 0;
#X connect 24 0 25 0;
#X connect 24 0 26 0;
#X connect 25 0 24 1;
#X connect 26 0 31 0;
#X connect 26 0 32 0;
#X connect 28 0 29 0;
#X connect 28 1 30 0;
#X connect 29 0 24 0;
#X connect 30 0 24 1;
#X connect 33 0 34 0;
#X connect 34 0 26 0;
#X connect 35 0 22 0;
#X restore 483 319 pd PONTOS;
#N canvas 389 82 765 791 VIDEOBACK 0;
#X obj -12 515 pix_texture;
#X obj 126 -148 tgl 15 0 empty empty empty 17 7 0 10 -262144 -1 -1
0 1;
#X floatatom 25 585 5 0 0 0 - - -;
#X floatatom 63 588 5 0 0 0 - - -;
#X obj -12 540 translateXYZ 0 0 1;
#X obj -394 -192 r vid;
#X obj 2 442 pix_mask;
#X obj 2 466 alpha;
#X obj 124 -102 gemhead 10;
#X obj 232 -107 pix_buffer gogo 2;
#X obj 124 90 pix_buffer_write gogo;
#X obj 124 -51 t a b b;
#X obj 49 414 pix_buffer_read gogo;
#X obj 62 348 t a b;
#X floatatom 96 513 5 0 0 0 - - -;
#X msg 139 359 1;
#X msg 195 41 1;
#X obj -312 89 pix_separator;
#X obj -432 92 pix_separator;
#X obj -308 363 pix_colormatrix;
#X obj -442 338 pix_colormatrix;
#X obj -345 13 pix_posterize;
#X obj -314 -44 hradio 15 1 0 5 empty empty limit 0 -6 0 8 -262144
-1 -1 0;
#X floatatom -336 -105 5 0 0 0 - - -;
#X obj -330 -80 / 255;
#X obj -255 -195 loadbang;
#X msg -299 -153 5;
#X obj -76 -176 r Flick;
#X obj -71 -130 metro 200;
#X obj -29 -154 tgl 15 0 empty empty empty 17 7 0 10 -262144 -1 -1
0 1;
#X obj 62 312 gemhead 13;
#X obj 42 -126 tgl 15 0 empty empty empty 17 7 0 10 -262144 -1 -1 0
1;
#X obj -427 -127 pix_separator;
#X obj -234 251 pack f 1 1;
#X obj -234 279 hsv2rgb;
#X obj 281 174 vsl 15 128 0 1 0 0 empty empty empty 0 -9 0 10 -262144
-1 -1 0 1;
#X floatatom 282 315 5 0 0 0 - - -;
#X obj -78 4 * 0.8;
#X obj -78 33 + 0.1;
#X obj -72 -97 bng 15 250 50 0 empty empty empty 17 7 0 10 -262144
-1 -1;
#X obj -73 -58 random 256;
#X obj -73 -28 / 256;
#X obj -77 59 t f f;
#X obj -75 94 * 360;
#X obj -67 128 + 180;
#X obj -66 159 mod 360;
#X obj -63 187 / 360;
#X obj -81 249 pack f 1 1;
#X obj -65 297 hsv2rgb;
#X obj 124 -11 pix_snap 0 0 720 480;
#X obj -12 613 rectangle 4.5 3;
#X obj -357 167 pix_invert;
#X obj 56 270 tgl 15 0 empty empty empty 17 7 0 10 -262144 -1 -1 0
1;
#X obj -374 234 pix_rgba;
#X obj -450 211 pix_rgba;
#X msg -129 339 \$1 0 0 0 \$2 0 0 0 \$3;
#X msg -234 305 \$1 0 0 0 \$2 0 0 0 \$3;
#X obj -329 144 tgl 15 0 empty empty empty 17 7 0 10 -262144 -1 -1
0 1;
#X obj -378 406 pix_add;
#X floatatom -244 567 5 0 0 0 - - -;
#X floatatom -206 570 5 0 0 0 - - -;
#X obj -281 522 translateXYZ 0 0 1;
#X floatatom -173 495 5 0 0 0 - - -;
#X obj -281 595 rectangle 4.5 3;
#X obj -281 497 pix_texture;
#X obj -406 -44 pix_yuv;
#X obj -153 -105 loadbang;
#X connect 0 0 4 0;
#X connect 1 0 8 0;
#X connect 2 0 50 1;
#X connect 3 0 50 2;
#X connect 4 0 50 0;
#X connect 5 0 32 0;
#X connect 6 0 7 0;
#X connect 7 0 0 0;
#X connect 8 0 11 0;
#X connect 11 0 49 0;
#X connect 11 1 49 0;
#X connect 11 2 16 0;
#X connect 12 0 6 1;
#X connect 13 0 12 0;
#X connect 13 1 15 0;
#X connect 14 0 4 3;
#X connect 15 0 12 1;
#X connect 16 0 10 1;
#X connect 17 0 51 0;
#X connect 18 0 54 0;
#X connect 19 0 58 1;
#X connect 20 0 58 0;
#X connect 21 0 18 0;
#X connect 21 0 17 0;
#X connect 22 0 21 2;
#X connect 23 0 24 0;
#X connect 24 0 21 1;
#X connect 25 0 26 0;
#X connect 26 0 23 0;
#X connect 27 0 28 0;
#X connect 28 0 39 0;
#X connect 29 0 28 0;
#X connect 30 0 13 0;
#X connect 32 0 65 0;
#X connect 33 0 34 0;
#X connect 34 0 56 0;
#X connect 35 0 36 0;
#X connect 37 0 38 0;
#X connect 38 0 42 0;
#X connect 39 0 40 0;
#X connect 40 0 41 0;
#X connect 41 0 37 0;
#X connect 42 0 33 0;
#X connect 42 1 43 0;
#X connect 43 0 44 0;
#X connect 44 0 45 0;
#X connect 45 0 46 0;
#X connect 46 0 47 0;
#X connect 47 0 48 0;
#X connect 48 0 55 0;
#X connect 49 0 10 0;
#X connect 51 0 53 0;
#X connect 52 0 30 0;
#X connect 53 0 19 0;
#X connect 54 0 20 0;
#X connect 55 0 20 1;
#X connect 56 0 19 1;
#X connect 57 0 51 0;
#X connect 58 0 6 0;
#X connect 59 0 63 1;
#X connect 60 0 63 2;
#X connect 61 0 63 0;
#X connect 62 0 61 3;
#X connect 64 0 61 0;
#X connect 65 0 21 0;
#X connect 66 0 39 0;
#X restore 579 324 pd VIDEOBACK;
#X text 487 497 FLOATING POEM labIO - 11 Fev 2014;
#X obj 483 353 nbx 2 40 -1e+37 1e+37 0 0 empty empty empty 0 -8 0 35
-262144 -1 -1 0 256;
#X floatatom 377 -138 5 0 0 0 - - -;
#X obj 451 -163 key;
#X obj 448 -114 spigot;
#X obj 486 -143 tgl 15 0 empty empty empty 17 7 0 10 -262144 -1 -1
0 1;
#X obj 449 -80 sel 97 115;
#X msg 361 43 dimen 640 480 \, FSAA 7 \, fps 30 \, fullscreen 0 \,
create \, 1;
#X obj 537 182 tgl 15 0 empty empty empty 17 7 0 10 -262144 -1 -1 0
1;
#X obj 519 154 r MasterColSw;
#X msg 114 -15 reset \, dimen 720 480 \, FSAA 7 \, fps 30 \, offset
1592 144 \, border 1 \, create \, 1;
#N canvas 314 368 147 185 POSITIONS 0;
#X obj -9 21 check-pos-X;
#X obj -3 63 check-pos-Y;
#X restore 223 371 pd POSITIONS;
#X obj 40 82 BLOCO 1;
#X obj 252 82 BLOCO 22;
#X obj 99 157 BLOCO 11;
#X obj 179 157 BLOCO 18;
#X obj 252 182 BLOCO 26;
#X obj 101 231 BLOCO 14;
#X obj 179 232 BLOCO 21;
#X obj 40 182 BLOCO 5;
#X obj 99 82 BLOCO 8;
#X obj 40 107 BLOCO 2;
#X obj 40 132 BLOCO 3;
#X obj 40 157 BLOCO 4;
#X obj 40 207 BLOCO 6;
#X obj 40 232 BLOCO 7;
#X obj 99 107 BLOCO 9;
#X obj 99 132 BLOCO 10;
#X obj 99 182 BLOCO 12;
#X obj 99 207 BLOCO 13;
#X obj 179 82 BLOCO 15;
#X obj 179 107 BLOCO 16;
#X obj 179 132 BLOCO 17;
#X obj 179 182 BLOCO 19;
#X obj 179 207 BLOCO 20;
#X obj 252 107 BLOCO 23;
#X obj 252 132 BLOCO 24;
#X obj 252 157 BLOCO 25;
#X obj 253 213 BLOCO 27;
#X obj 254 236 BLOCO 28;
#X obj 326 82 BLOCO 29;
#X obj 331 109 BLOCO 30;
#X connect 1 0 0 0;
#X connect 3 0 2 0;
#X connect 5 0 4 0;
#X connect 8 0 7 0;
#X connect 10 0 12 0;
#X connect 11 0 9 0;
#X connect 12 0 9 1;
#X connect 14 0 17 0;
#X connect 19 0 18 0;
#X connect 19 0 20 0;
#X connect 20 0 22 0;
#X connect 21 0 20 1;
#X connect 22 0 26 0;
#X connect 22 1 1 0;
#X connect 23 0 0 0;
#X connect 25 0 24 0;
#X connect 26 0 0 0;
